<svg t="1676947372388" class="icon" viewBox="0 0 1024 1024" version="1.1" xmlns="http://www.w3.org/2000/svg" p-id="2526" width="200" height="200"><path d="M512 512m-344 0a344 344 0 1 0 688 0 344 344 0 1 0-688 0Z" fill="#E65A63" p-id="2527"></path><path d="M218.86 332a344.868 344.868 0 0 1 22.292-32h541.696a344.868 344.868 0 0 1 22.292 32H218.86z m-50.288 160h686.856a348.96 348.96 0 0 1 0.368 32H168.204a351.712 351.712 0 0 1 0.368-32z m60.764 216h565.328a345.6 345.6 0 0 1-25.16 32H254.496a345.6 345.6 0 0 1-25.16-32z" fill="#E0313D" p-id="2528"></path><path d="M512 512m-84 0a84 84 0 1 0 168 0 84 84 0 1 0-168 0Z" fill="#BBC8E7" p-id="2529"></path><path d="M512 68c245.052 0 444 198.948 444 444s-198.948 444-444 444S68 757.052 68 512 266.948 68 512 68z m0 100c-189.86 0-344 154.14-344 344s154.14 344 344 344 344-154.14 344-344-154.14-344-344-344z" fill="#E0E9FC" p-id="2530"></path><path d="M512 956c-243.716 0-441.832-196.788-443.984-440h100.008c2.144 188.02 155.452 340 343.976 340s341.832-151.98 343.976-340h100.008c-2.152 243.212-200.268 440-443.984 440z" fill="#B9CEF8" p-id="2531"></path><path d="M512 92c14.348 0 26 11.652 26 26S526.348 144 512 144a26.016 26.016 0 0 1-26-26c0-14.348 11.652-26 26-26z m0 788c14.348 0 26 11.652 26 26s-11.652 26-26 26a26.016 26.016 0 0 1-26-26c0-14.348 11.652-26 26-26zM112.556 382.212a26.012 26.012 0 0 1 32.764-16.692 26.016 26.016 0 0 1 16.692 32.76 26.02 26.02 0 0 1-32.764 16.696 26.012 26.012 0 0 1-16.692-32.764z m749.432 243.508a26.02 26.02 0 0 1 32.764-16.696 26.012 26.012 0 0 1 16.692 32.764 26.012 26.012 0 0 1-32.764 16.692 26.016 26.016 0 0 1-16.692-32.76zM911.444 382.212a26.012 26.012 0 0 1-16.692 32.764 26.02 26.02 0 0 1-32.764-16.696 26.016 26.016 0 0 1 16.692-32.76 26.012 26.012 0 0 1 32.764 16.692zM162.012 625.72a26.016 26.016 0 0 1-16.692 32.76 26.012 26.012 0 0 1-32.764-16.692 26.012 26.012 0 0 1 16.692-32.764 26.02 26.02 0 0 1 32.764 16.696zM758.868 851.788a26.016 26.016 0 0 1-36.316-5.752 26.012 26.012 0 0 1 5.752-36.316 26.008 26.008 0 0 1 36.316 5.752 26.008 26.008 0 0 1-5.752 36.316zM295.696 214.28a26.008 26.008 0 0 1-36.316-5.752 26.008 26.008 0 0 1 5.752-36.316 26.016 26.016 0 0 1 36.316 5.752 26.012 26.012 0 0 1-5.752 36.316zM265.132 851.788a26.008 26.008 0 0 1-5.752-36.316 26.008 26.008 0 0 1 36.316-5.752 26.012 26.012 0 0 1 5.752 36.316 26.016 26.016 0 0 1-36.316 5.752zM728.304 214.28a26.012 26.012 0 0 1-5.752-36.316 26.016 26.016 0 0 1 36.316-5.752 26.008 26.008 0 0 1 5.752 36.316 26.008 26.008 0 0 1-36.316 5.752z" fill="#9CA9D8" p-id="2532"></path></svg>